<svg xmlns="http://www.w3.org/2000/svg" xmlns:xlink="http://www.w3.org/1999/xlink" width="500" zoomAndPan="magnify" viewBox="0 0 375 374.999991" height="500" preserveAspectRatio="xMidYMid meet" version="1.0"><defs><g/><clipPath id="5c841a9693"><path d="M 74.660156 149.6875 L 332.660156 149.6875 L 332.660156 290.6875 L 74.660156 290.6875 Z M 74.660156 149.6875 " clip-rule="nonzero"/></clipPath><clipPath id="acbba6d8e2"><path d="M 193 47 L 361 47 L 361 162 L 193 162 Z M 193 47 " clip-rule="nonzero"/></clipPath><clipPath id="c693ed5590"><path d="M 221.605469 16.253906 L 374.65625 75.863281 L 327.296875 197.464844 L 174.242188 137.859375 Z M 221.605469 16.253906 " clip-rule="nonzero"/></clipPath><clipPath id="ed79b45f25"><path d="M 221.605469 16.253906 L 374.65625 75.863281 L 327.296875 197.464844 L 174.242188 137.859375 Z M 221.605469 16.253906 " clip-rule="nonzero"/></clipPath><clipPath id="b79ac8b473"><path d="M 221.605469 16.253906 L 374.65625 75.863281 L 327.296875 197.464844 L 174.242188 137.859375 Z M 221.605469 16.253906 " clip-rule="nonzero"/></clipPath><clipPath id="1ba10f0773"><path d="M 14 52 L 191 52 L 191 201 L 14 201 Z M 14 52 " clip-rule="nonzero"/></clipPath><clipPath id="897aa89526"><path d="M 0 72.964844 L 187.28125 47.519531 L 205.25 179.804688 L 17.972656 205.25 Z M 0 72.964844 " clip-rule="nonzero"/></clipPath><clipPath id="12c9a2b433"><path d="M 0 72.964844 L 187.28125 47.519531 L 205.25 179.804688 L 17.972656 205.25 Z M 0 72.964844 " clip-rule="nonzero"/></clipPath><clipPath id="b00e847ad9"><path d="M 89.722656 149 L 174 149 L 174 198 L 89.722656 198 Z M 89.722656 149 " clip-rule="nonzero"/></clipPath><clipPath id="68cc64b618"><path d="M 219 161 L 319.972656 161 L 319.972656 194 L 219 194 Z M 219 161 " clip-rule="nonzero"/></clipPath><clipPath id="10bc59dc44"><path d="M 89.722656 170 L 319.972656 170 L 319.972656 222 L 89.722656 222 Z M 89.722656 170 " clip-rule="nonzero"/></clipPath><clipPath id="119007b1d9"><path d="M 298 182 L 319.972656 182 L 319.972656 205 L 298 205 Z M 298 182 " clip-rule="nonzero"/></clipPath><clipPath id="a7a3f50196"><path d="M 89.722656 188 L 259 188 L 259 233 L 89.722656 233 Z M 89.722656 188 " clip-rule="nonzero"/></clipPath></defs><rect x="-37.5" width="450" fill="#ffffff" y="-37.499999" height="449.999989" fill-opacity="1"/><rect x="-37.5" width="450" fill="#ffffff" y="-37.499999" height="449.999989" fill-opacity="1"/><g clip-path="url(#5c841a9693)"><path fill="#000000" d="M 231.78125 253.636719 L 231.78125 271.566406 L 271.382812 271.566406 C 274.121094 271.566406 276.351562 273.804688 276.351562 276.542969 L 276.351562 285.855469 C 276.351562 288.59375 274.121094 290.824219 271.382812 290.824219 L 138.867188 290.824219 C 136.128906 290.824219 133.894531 288.59375 133.894531 285.855469 L 133.894531 276.542969 C 133.894531 273.804688 136.128906 271.566406 138.867188 271.566406 L 178.46875 271.566406 L 178.46875 253.636719 L 90.851562 253.636719 C 86.550781 253.636719 82.453125 251.925781 79.414062 248.886719 C 76.371094 245.847656 74.660156 241.753906 74.660156 237.453125 L 74.660156 107.847656 C 74.660156 103.542969 76.371094 99.445312 79.414062 96.40625 C 82.453125 93.371094 86.550781 91.660156 90.851562 91.660156 L 320.207031 91.660156 C 324.507812 91.660156 328.605469 93.371094 331.644531 96.40625 C 334.6875 99.445312 336.394531 103.542969 336.394531 107.847656 L 336.394531 237.453125 C 336.394531 241.753906 334.6875 245.847656 331.644531 248.886719 C 328.605469 251.925781 324.507812 253.636719 320.207031 253.636719 Z M 320.207031 106.203125 L 90.851562 106.203125 C 90.417969 106.203125 90.007812 106.378906 89.703125 106.6875 C 89.394531 106.996094 89.214844 107.40625 89.214844 107.847656 L 89.214844 237.453125 C 89.214844 237.886719 89.394531 238.296875 89.703125 238.601562 C 90.007812 238.910156 90.417969 239.089844 90.851562 239.089844 L 320.207031 239.089844 C 320.640625 239.089844 321.054688 238.910156 321.363281 238.601562 C 321.667969 238.296875 321.847656 237.886719 321.847656 237.453125 L 321.847656 107.847656 C 321.847656 107.40625 321.667969 106.996094 321.363281 106.6875 C 321.054688 106.378906 320.640625 106.203125 320.207031 106.203125 Z M 320.207031 106.203125 " fill-opacity="1" fill-rule="evenodd"/></g><g clip-path="url(#acbba6d8e2)"><g clip-path="url(#c693ed5590)"><g clip-path="url(#ed79b45f25)"><g clip-path="url(#b79ac8b473)"><path fill="#000000" d="M 311.765625 51.527344 L 314.390625 64.523438 C 319.355469 65.464844 324.015625 67.285156 328.207031 69.820312 L 339.066406 62.070312 C 342.601562 64.710938 345.804688 67.769531 348.609375 71.179688 L 341.296875 82.261719 C 344.046875 86.324219 346.105469 90.894531 347.3125 95.8125 L 360.4375 98.027344 C 360.753906 100.238281 360.941406 102.496094 360.988281 104.792969 C 361.03125 106.972656 360.941406 109.128906 360.738281 111.246094 L 347.769531 113.917969 C 346.816406 118.90625 344.988281 123.585938 342.453125 127.792969 L 350.152344 138.667969 C 347.511719 142.21875 344.445312 145.445312 341.039062 148.265625 L 330.011719 140.960938 C 325.957031 143.726562 321.390625 145.8125 316.484375 147.03125 L 314.246094 160.207031 C 312.039062 160.527344 309.785156 160.722656 307.496094 160.777344 C 305.320312 160.828125 303.171875 160.742188 301.058594 160.542969 L 298.433594 147.542969 C 293.464844 146.601562 288.804688 144.78125 284.617188 142.246094 L 282.042969 144.082031 L 281.652344 142.367188 C 284.667969 139.855469 287.378906 136.996094 289.71875 133.839844 L 304.027344 136.605469 L 305.515625 133.800781 C 306.425781 132.078125 307.257812 130.324219 308.007812 128.535156 C 319.878906 127.660156 329.136719 117.585938 328.898438 105.519531 C 328.675781 94.285156 320.292969 85.15625 309.542969 83.683594 C 308.136719 79.574219 306.308594 75.617188 304.09375 71.886719 L 302.503906 69.203125 L 288.195312 72.511719 C 287.320312 71.453125 286.402344 70.433594 285.441406 69.449219 C 288.808594 67.5 292.464844 66 296.339844 65.035156 L 298.578125 51.867188 C 300.785156 51.539062 303.035156 51.34375 305.328125 51.289062 C 307.5 51.242188 309.648438 51.324219 311.765625 51.527344 Z M 277.710938 52.394531 L 274.992188 66.371094 C 279.515625 69.347656 283.386719 73.070312 286.496094 77.308594 L 300.414062 74.089844 C 302.828125 78.164062 304.75 82.515625 306.125 87.054688 L 294.359375 95.039062 C 295.417969 100.199219 295.589844 105.578125 294.765625 110.949219 L 306.851562 118.546875 C 306.261719 120.875 305.523438 123.191406 304.628906 125.484375 C 303.777344 127.667969 302.8125 129.769531 301.738281 131.789062 L 287.8125 129.101562 C 284.832031 133.652344 281.109375 137.546875 276.875 140.671875 L 280.042969 154.625 C 275.980469 157.058594 271.628906 159 267.105469 160.394531 L 259.179688 148.609375 C 254.03125 149.6875 248.664062 149.871094 243.308594 149.0625 L 235.703125 161.207031 C 233.386719 160.621094 231.078125 159.890625 228.792969 159 C 226.621094 158.152344 224.527344 157.183594 222.519531 156.117188 L 225.238281 142.144531 C 220.710938 139.164062 216.839844 135.4375 213.730469 131.203125 L 199.8125 134.421875 C 197.398438 130.34375 195.476562 125.988281 194.101562 121.457031 L 205.871094 113.472656 C 204.808594 108.3125 204.640625 102.929688 205.460938 97.554688 L 193.378906 89.964844 C 193.96875 87.632812 194.707031 85.316406 195.601562 83.023438 C 196.449219 80.839844 197.421875 78.738281 198.492188 76.722656 L 212.414062 79.40625 C 215.398438 74.855469 219.117188 70.96875 223.351562 67.835938 L 220.183594 53.882812 C 224.25 51.449219 228.597656 49.507812 233.125 48.117188 L 241.050781 59.898438 C 246.195312 58.824219 251.5625 58.636719 256.921875 59.441406 L 264.523438 47.300781 C 266.84375 47.890625 269.148438 48.621094 271.4375 49.511719 C 273.609375 50.359375 275.699219 51.324219 277.710938 52.394531 Z M 258.898438 81.703125 C 246.496094 76.871094 232.503906 83.054688 227.65625 95.507812 C 222.804688 107.960938 228.929688 121.980469 241.332031 126.8125 C 253.730469 131.640625 267.722656 125.457031 272.574219 113 C 277.421875 100.550781 271.300781 86.53125 258.898438 81.703125 Z M 258.898438 81.703125 " fill-opacity="1" fill-rule="evenodd"/></g></g></g></g><g clip-path="url(#1ba10f0773)"><g clip-path="url(#897aa89526)"><g clip-path="url(#12c9a2b433)"><path fill="#000000" d="M 173.117188 86.816406 C 169.710938 89.445312 159.949219 82.011719 159.949219 82.011719 C 159.949219 82.011719 155.261719 70.679688 158.671875 68.058594 L 175.644531 54.984375 C 167.019531 50.878906 156.472656 51.640625 148.402344 57.855469 C 140.535156 63.917969 137.070312 73.5625 138.515625 82.71875 C 111.566406 107.820312 82.335938 130.335938 51.1875 149.976562 C 42.703125 146.226562 32.484375 147.121094 24.617188 153.179688 C 16.539062 159.402344 13.121094 169.40625 14.882812 178.785156 L 31.851562 165.710938 C 35.265625 163.089844 45.023438 170.523438 45.023438 170.523438 C 45.023438 170.523438 49.710938 181.855469 46.308594 184.476562 L 29.335938 197.542969 C 37.949219 201.648438 48.496094 200.898438 56.574219 194.675781 C 64.261719 188.761719 67.726562 179.414062 66.53125 170.449219 C 93.625 145.183594 123.039062 122.542969 154.386719 102.792969 C 162.757812 106.234375 172.667969 105.269531 180.355469 99.359375 C 188.429688 93.140625 191.855469 83.132812 190.089844 73.75 Z M 173.117188 86.816406 " fill-opacity="1" fill-rule="nonzero"/></g></g></g><g clip-path="url(#b00e847ad9)"><path fill="#99dde7" d="M 117.40625 190.109375 C 138.402344 205.851562 151.527344 192.707031 173.480469 182 C 155.304688 176.765625 141.460938 163.488281 127.941406 153.964844 C 116.59375 145.972656 101.71875 149.785156 88.757812 156.375 L 88.757812 184.765625 C 88.757812 184.765625 105.082031 180.875 117.40625 190.109375 " fill-opacity="1" fill-rule="nonzero"/></g><g clip-path="url(#68cc64b618)"><path fill="#99dde7" d="M 227.25 173.179688 C 224.425781 174.722656 221.679688 176.085938 219.007812 177.277344 C 232.765625 186.28125 236.820312 204.507812 261.085938 185.171875 C 292.074219 160.480469 323.507812 175.363281 323.507812 175.363281 L 323.507812 173.179688 C 323.507812 173.179688 276.90625 146.019531 227.25 173.179688 " fill-opacity="1" fill-rule="nonzero"/></g><g clip-path="url(#10bc59dc44)"><path fill="#6ecfe2" d="M 261.085938 185.171875 C 236.820312 204.507812 232.765625 186.28125 219.007812 177.277344 C 213.460938 173.648438 206.34375 171.519531 195.6875 173.949219 C 187.226562 175.882812 179.96875 178.835938 173.480469 182 C 151.527344 192.707031 138.402344 205.851562 117.40625 190.109375 C 105.082031 180.875 88.757812 184.765625 88.757812 184.765625 L 88.757812 188.882812 C 88.757812 188.882812 131.835938 218.296875 181.601562 197.132812 C 226.757812 177.933594 233.261719 205.363281 258.625 221.148438 C 267.894531 215.261719 276.171875 208.148438 284.328125 202.402344 C 288.679688 199.335938 293.550781 198.011719 298.632812 197.90625 C 303.371094 189.324219 310.230469 182.25 323.507812 182.296875 L 323.507812 175.363281 C 323.507812 175.363281 292.074219 160.480469 261.085938 185.171875 " fill-opacity="1" fill-rule="nonzero"/></g><g clip-path="url(#119007b1d9)"><path fill="#40c0d8" d="M 298.632812 197.90625 C 306.804688 197.746094 315.519531 200.75 323.507812 204.8125 L 323.507812 182.296875 C 310.230469 182.25 303.371094 189.324219 298.632812 197.90625 " fill-opacity="1" fill-rule="nonzero"/></g><g clip-path="url(#a7a3f50196)"><path fill="#40c0d8" d="M 185.019531 221.617188 C 218.007812 239.660156 240.269531 232.804688 258.625 221.148438 C 233.261719 205.363281 226.757812 177.933594 181.601562 197.132812 C 131.835938 218.296875 88.757812 188.882812 88.757812 188.882812 L 88.757812 221.617188 C 88.757812 221.617188 135.363281 194.457031 185.019531 221.617188 " fill-opacity="1" fill-rule="nonzero"/></g><path fill="#99dde7" d="M 298.636719 197.90625 C 293.550781 198.007812 288.679688 199.335938 284.328125 202.402344 C 276.171875 208.148438 267.898438 215.261719 258.625 221.148438 C 261.21875 222.761719 264.003906 224.253906 267.054688 225.5625 C 288.367188 234.710938 289.894531 213.742188 298.636719 197.90625 " fill-opacity="1" fill-rule="nonzero"/><g fill="#000000" fill-opacity="1"><g transform="translate(112.332785, 329.225761)"><g><path d="M 12.75 -19.390625 C 10.894531 -19.390625 9.460938 -18.695312 8.453125 -17.3125 C 7.441406 -15.925781 6.9375 -13.992188 6.9375 -11.515625 C 6.9375 -6.347656 8.875 -3.765625 12.75 -3.765625 C 14.375 -3.765625 16.34375 -4.171875 18.65625 -4.984375 L 18.65625 -0.875 C 16.75 -0.0820312 14.625 0.3125 12.28125 0.3125 C 8.914062 0.3125 6.34375 -0.707031 4.5625 -2.75 C 2.78125 -4.789062 1.890625 -7.722656 1.890625 -11.546875 C 1.890625 -13.953125 2.328125 -16.054688 3.203125 -17.859375 C 4.078125 -19.671875 5.332031 -21.0625 6.96875 -22.03125 C 8.613281 -23 10.539062 -23.484375 12.75 -23.484375 C 14.988281 -23.484375 17.242188 -22.9375 19.515625 -21.84375 L 17.9375 -17.859375 C 17.070312 -18.265625 16.203125 -18.617188 15.328125 -18.921875 C 14.453125 -19.234375 13.59375 -19.390625 12.75 -19.390625 Z M 12.75 -19.390625 "/></g></g></g><g fill="#000000" fill-opacity="1"><g transform="translate(132.994656, 329.225761)"><g><path d="M 23.921875 -11.609375 C 23.921875 -7.773438 22.96875 -4.828125 21.0625 -2.765625 C 19.164062 -0.710938 16.445312 0.3125 12.90625 0.3125 C 9.351562 0.3125 6.628906 -0.710938 4.734375 -2.765625 C 2.835938 -4.828125 1.890625 -7.785156 1.890625 -11.640625 C 1.890625 -15.492188 2.835938 -18.4375 4.734375 -20.46875 C 6.640625 -22.5 9.375 -23.515625 12.9375 -23.515625 C 16.488281 -23.515625 19.207031 -22.488281 21.09375 -20.4375 C 22.976562 -18.382812 23.921875 -15.441406 23.921875 -11.609375 Z M 7.03125 -11.609375 C 7.03125 -9.015625 7.519531 -7.0625 8.5 -5.75 C 9.476562 -4.445312 10.945312 -3.796875 12.90625 -3.796875 C 16.820312 -3.796875 18.78125 -6.398438 18.78125 -11.609375 C 18.78125 -16.816406 16.832031 -19.421875 12.9375 -19.421875 C 10.976562 -19.421875 9.503906 -18.765625 8.515625 -17.453125 C 7.523438 -16.140625 7.03125 -14.191406 7.03125 -11.609375 Z M 7.03125 -11.609375 "/></g></g></g><g fill="#000000" fill-opacity="1"><g transform="translate(158.802203, 329.225761)"><g><path d="M 12.71875 0 L 7.140625 -18.15625 L 7 -18.15625 C 7.195312 -14.46875 7.296875 -12.003906 7.296875 -10.765625 L 7.296875 0 L 2.90625 0 L 2.90625 -23.140625 L 9.59375 -23.140625 L 15.078125 -5.453125 L 15.171875 -5.453125 L 20.96875 -23.140625 L 27.65625 -23.140625 L 27.65625 0 L 23.078125 0 L 23.078125 -10.953125 C 23.078125 -11.472656 23.082031 -12.066406 23.09375 -12.734375 C 23.113281 -13.410156 23.1875 -15.207031 23.3125 -18.125 L 23.171875 -18.125 L 17.203125 0 Z M 12.71875 0 "/></g></g></g><g fill="#000000" fill-opacity="1"><g transform="translate(189.375439, 329.225761)"><g><path d="M 7.828125 -12.25 L 9.4375 -12.25 C 10.945312 -12.25 12.078125 -12.546875 12.828125 -13.140625 C 13.578125 -13.742188 13.953125 -14.613281 13.953125 -15.75 C 13.953125 -16.90625 13.632812 -17.753906 13 -18.296875 C 12.375 -18.847656 11.390625 -19.125 10.046875 -19.125 L 7.828125 -19.125 Z M 18.90625 -15.921875 C 18.90625 -13.429688 18.125 -11.523438 16.5625 -10.203125 C 15.007812 -8.890625 12.796875 -8.234375 9.921875 -8.234375 L 7.828125 -8.234375 L 7.828125 0 L 2.90625 0 L 2.90625 -23.140625 L 10.3125 -23.140625 C 13.113281 -23.140625 15.242188 -22.535156 16.703125 -21.328125 C 18.171875 -20.117188 18.90625 -18.316406 18.90625 -15.921875 Z M 18.90625 -15.921875 "/></g></g></g><g fill="#000000" fill-opacity="1"><g transform="translate(209.736486, 329.225761)"><g><path d="M 21.75 -23.140625 L 21.75 -8.171875 C 21.75 -6.460938 21.363281 -4.960938 20.59375 -3.671875 C 19.832031 -2.378906 18.726562 -1.390625 17.28125 -0.703125 C 15.84375 -0.0234375 14.132812 0.3125 12.15625 0.3125 C 9.175781 0.3125 6.863281 -0.445312 5.21875 -1.96875 C 3.570312 -3.5 2.75 -5.585938 2.75 -8.234375 L 2.75 -23.140625 L 7.640625 -23.140625 L 7.640625 -8.96875 C 7.640625 -7.1875 8 -5.878906 8.71875 -5.046875 C 9.4375 -4.210938 10.625 -3.796875 12.28125 -3.796875 C 13.882812 -3.796875 15.046875 -4.210938 15.765625 -5.046875 C 16.492188 -5.890625 16.859375 -7.210938 16.859375 -9.015625 L 16.859375 -23.140625 Z M 21.75 -23.140625 "/></g></g></g><g fill="#000000" fill-opacity="1"><g transform="translate(234.24574, 329.225761)"><g><path d="M 11.84375 0 L 6.9375 0 L 6.9375 -19.0625 L 0.65625 -19.0625 L 0.65625 -23.140625 L 18.125 -23.140625 L 18.125 -19.0625 L 11.84375 -19.0625 Z M 11.84375 0 "/></g></g></g><g fill="#000000" fill-opacity="1"><g transform="translate(253.023501, 329.225761)"><g><path d="M 17.078125 0 L 15.40625 -5.515625 L 6.96875 -5.515625 L 5.28125 0 L 0 0 L 8.171875 -23.234375 L 14.171875 -23.234375 L 22.375 0 Z M 14.234375 -9.625 C 12.679688 -14.613281 11.804688 -17.4375 11.609375 -18.09375 C 11.410156 -18.75 11.269531 -19.265625 11.1875 -19.640625 C 10.84375 -18.296875 9.847656 -14.957031 8.203125 -9.625 Z M 14.234375 -9.625 "/></g></g></g><g fill="#000000" fill-opacity="1"><g transform="translate(275.39532, 329.225761)"><g><path d="M 7.828125 -12.875 L 9.40625 -12.875 C 10.957031 -12.875 12.101562 -13.128906 12.84375 -13.640625 C 13.582031 -14.160156 13.953125 -14.972656 13.953125 -16.078125 C 13.953125 -17.179688 13.570312 -17.960938 12.8125 -18.421875 C 12.0625 -18.890625 10.894531 -19.125 9.3125 -19.125 L 7.828125 -19.125 Z M 7.828125 -8.875 L 7.828125 0 L 2.90625 0 L 2.90625 -23.140625 L 9.65625 -23.140625 C 12.800781 -23.140625 15.128906 -22.566406 16.640625 -21.421875 C 18.148438 -20.273438 18.90625 -18.539062 18.90625 -16.21875 C 18.90625 -14.851562 18.53125 -13.640625 17.78125 -12.578125 C 17.03125 -11.515625 15.96875 -10.679688 14.59375 -10.078125 C 18.082031 -4.878906 20.351562 -1.519531 21.40625 0 L 15.953125 0 L 10.4375 -8.875 Z M 7.828125 -8.875 "/></g></g></g></svg>